<svg width="24" height="25" viewBox="0 0 24 25" fill="none" xmlns="http://www.w3.org/2000/svg">
<path d="M8.34825 4.59998C10.2855 4.59998 11.1851 5.4756 11.9996 6.18248V8.14185C11.7548 8.12685 11.5631 8.03535 11.4244 7.8681C11.3156 7.7376 11.1934 7.60748 11.0576 7.47885C10.3102 6.77048 9.48825 6.18885 8.42288 6.18885C5.92538 6.18885 4.29375 7.93073 4.29375 10.5257C4.29375 11.6826 4.82625 12.7442 5.451 13.5741C6.07538 14.404 6.90863 15.3501 8.70187 16.9139C9.5295 17.6357 10.4201 18.3227 11.0576 18.8181C11.3501 19.0454 11.6584 19.2696 11.9827 19.4901L11.9996 19.4777V21.1C11.9846 21.1 11.9696 21.0992 11.9546 21.0985C11.25 21.0535 9.68212 19.9097 7.6815 18.1649C5.76075 16.4897 4.99312 15.7232 4.239 14.7167C3.26888 13.4526 2.625 12.0137 2.625 10.6502C2.625 7.11023 5.019 4.59998 8.34825 4.59998ZM15.6517 4.59998C18.981 4.59998 21.375 7.1106 21.375 10.6502C21.375 12.0137 20.7311 13.4526 19.761 14.7167C19.0069 15.7232 18.2392 16.4897 16.3185 18.1649C14.3175 19.9094 12.75 21.0539 12.045 21.0985L12.0229 21.0996L12.0004 21.1V19.4777L12.0173 19.4901C12.3416 19.2696 12.6499 19.0454 12.9424 18.8181C13.5799 18.3227 14.4705 17.6357 15.2981 16.9139C17.0914 15.3501 17.9246 14.404 18.5494 13.5741C19.1737 12.7442 19.7062 11.6826 19.7062 10.5254C19.7062 7.93073 18.0746 6.18923 15.5771 6.18923C14.5121 6.18923 13.6898 6.77048 12.9424 7.47885C12.7995 7.61423 12.6825 7.76385 12.5543 7.89098C12.4061 8.03835 12.2438 8.12048 12.0671 8.13698L12.0004 8.13998V6.18248C12.8149 5.4756 13.7145 4.59998 15.6517 4.59998ZM6.8655 8.07998C7.01737 8.20448 7.05787 8.42048 6.96112 8.59148L6.882 8.7321C6.52462 9.21285 6.16988 10.0611 6.32925 11.0552C6.48375 12.0164 7.16738 12.9572 8.48138 13.9671L8.85938 14.2847C8.99963 14.4025 9.02437 14.6091 8.916 14.7569C8.80837 14.9035 8.604 14.9395 8.45288 14.8382L8.02425 14.551C6.60188 13.5186 5.81662 12.4742 5.616 11.2255C5.42325 10.0244 5.75887 8.8941 6.1875 8.34473L6.38025 8.1216C6.504 7.97835 6.71887 7.9596 6.86512 8.0796L6.8655 8.07998Z" fill="#0099FF"/>
</svg>
